<svg width="20" height="20" viewBox="0 0 20 20" fill="none" xmlns="http://www.w3.org/2000/svg">
<path d="M6.25001 3.33317C6.71024 3.33317 7.08334 2.96007 7.08334 2.49984C7.08334 2.0396 6.71024 1.6665 6.25001 1.6665H5.00001C3.15906 1.6665 1.66667 3.15889 1.66667 4.99984V14.9998C1.66667 16.8408 3.15906 18.3332 5.00001 18.3332H6.25C6.71024 18.3332 7.08334 17.9601 7.08334 17.4998C7.08334 17.0396 6.71024 16.6665 6.25 16.6665H5.00001C4.07953 16.6665 3.33334 15.9203 3.33334 14.9998L3.33334 4.99984C3.33334 4.07936 4.07953 3.33317 5.00001 3.33317H6.25001Z" fill="#101928"/>
<path d="M18.9226 10.5891C19.248 10.2637 19.248 9.73602 18.9226 9.41058L15.5893 6.07725C15.2638 5.75181 14.7362 5.75181 14.4107 6.07725C14.0853 6.40269 14.0853 6.93032 14.4107 7.25576L16.3215 9.1665L6.66667 9.1665C6.20643 9.1665 5.83334 9.5396 5.83334 9.99984C5.83334 10.4601 6.20643 10.8332 6.66667 10.8332L16.3215 10.8332L14.4107 12.7439C14.0853 13.0694 14.0853 13.597 14.4107 13.9224C14.7362 14.2479 15.2638 14.2479 15.5893 13.9224L18.9226 10.5891Z" fill="#101928"/>
</svg>
